<svg version="1.1" id="Layer_1" xmlns="http://www.w3.org/2000/svg" xmlns:xlink="http://www.w3.org/1999/xlink" x="0px" y="0px"
	 width="100%" viewBox="0 0 576 576" enable-background="new 0 0 576 576" xml:space="preserve">
<path fill="#000000" opacity="1.000000" stroke="none" 
	d="
M452.675323,216.752808 
	C423.513885,234.514572 394.661987,252.083786 365.804749,269.644226 
	C363.957489,270.768311 362.118683,271.923553 360.189606,272.892395 
	C355.862213,275.065765 351.146271,274.068756 349.129181,270.665009 
	C346.642639,266.469086 347.706512,262.823914 352.598969,259.798645 
	C370.717957,248.594818 388.825226,237.370117 407.045410,226.332382 
	C423.698395,216.244095 440.485687,206.377258 457.230804,196.441559 
	C459.356842,195.180099 461.474762,193.510620 464.135010,194.045303 
	C466.798889,194.580734 469.456024,195.645554 470.090149,198.661362 
	C470.794312,202.010147 470.766235,205.417435 467.384766,207.579041 
	C462.618652,210.625748 457.787140,213.570084 452.675323,216.752808 
z"/>
<path fill="#000000" opacity="1.000000" stroke="none" 
	d="
M346.984436,229.923828 
	C344.022797,234.976105 341.285858,239.737091 338.484161,244.459625 
	C335.066589,250.220383 331.169403,251.732941 326.730988,249.098602 
	C322.651825,246.677505 322.058563,242.334061 325.199646,236.849289 
	C336.778198,216.631332 348.398254,196.437164 359.993347,176.228683 
	C368.027100,162.227127 376.086823,148.240219 384.050842,134.199051 
	C387.332336,128.413559 392.051086,126.253052 396.546326,128.764511 
	C400.888489,131.190445 401.397125,135.660004 397.835632,141.842026 
	C380.972717,171.112610 364.069397,200.359909 346.984436,229.923828 
z"/>
<path fill="#000000" opacity="1.000000" stroke="none" 
	d="
M324.489349,356.295380 
	C322.618744,349.849548 323.749481,346.277039 327.932068,344.514984 
	C331.983246,342.808289 335.664978,344.648682 338.747162,349.997498 
	C358.193573,383.745117 377.635193,417.495544 397.054504,451.258759 
	C398.370087,453.546051 400.234802,455.782288 399.928772,458.568024 
	C399.540894,462.098694 397.828766,464.800964 393.997528,465.707825 
	C390.249939,466.594940 387.367157,465.376862 385.473297,462.194153 
	C382.069763,456.474426 378.887634,450.623535 375.563263,444.856110 
	C358.607941,415.440552 341.636719,386.034149 324.489349,356.295380 
z"/>
<path fill="#000000" opacity="1.000000" stroke="none" 
	d="
M350.028503,322.045654 
	C353.983246,319.200867 357.377533,320.126434 360.979309,322.193817 
	C396.195435,342.407745 430.634583,363.912781 465.369385,384.925873 
	C470.334259,387.929413 471.782715,392.175903 469.537964,396.134460 
	C467.256836,400.157196 462.492249,400.957794 457.340088,397.859589 
	C438.375183,386.455353 419.488159,374.921783 400.530243,363.505859 
	C384.708313,353.978424 368.804718,344.586487 352.985901,335.053986 
	C347.026276,331.462646 346.263489,328.108429 350.028503,322.045654 
z"/>
<path fill="#000000" opacity="1.000000" stroke="none" 
	d="
M256.945007,248.308014 
	C248.511429,236.663177 241.925507,224.308151 234.966675,212.192764 
	C221.531677,188.802399 208.348938,165.267151 195.062637,141.791382 
	C194.816696,141.356842 194.584259,140.914642 194.344177,140.476761 
	C191.559113,135.397156 192.344574,131.180862 196.518509,128.806656 
	C200.444672,126.573380 204.747894,127.781433 207.484268,132.399902 
	C212.744537,141.278305 217.746292,150.309814 222.861496,159.274261 
	C237.387222,184.730743 251.916260,210.185349 266.442780,235.641373 
	C266.855408,236.364441 267.226837,237.112350 267.664215,237.819763 
	C269.817871,241.303131 270.128815,244.817627 267.175690,247.912048 
	C264.190582,251.039993 260.728546,250.954742 256.945007,248.308014 
z"/>
<path fill="#000000" opacity="1.000000" stroke="none" 
	d="
M239.063568,335.117981 
	C204.703415,355.867493 170.659134,376.426697 136.614716,396.985626 
	C135.760117,397.501678 134.924469,398.053711 134.044647,398.522644 
	C129.915100,400.723450 125.591972,399.879272 123.486496,396.485077 
	C121.374077,393.079742 122.540184,388.075317 126.418854,385.685547 
	C151.213318,370.408661 176.029953,355.166870 200.919403,340.045410 
	C211.157211,333.825470 221.601166,327.945251 231.935425,321.883392 
	C234.929871,320.126923 237.909866,319.942017 240.889832,321.795990 
	C243.474915,323.404358 243.988113,326.027588 243.898590,328.767487 
	C243.800278,331.775909 241.703659,333.471313 239.063568,335.117981 
z"/>
<path fill="#000000" opacity="1.000000" stroke="none" 
	d="
M221.342010,405.399963 
	C232.644745,386.532623 243.030365,367.547058 254.667252,349.300537 
	C257.874817,344.271088 261.585175,342.687561 265.732635,345.061584 
	C269.775696,347.375824 270.462799,351.528290 267.440369,356.792328 
	C247.640274,391.277130 227.796722,425.737061 207.979034,460.211792 
	C206.081161,463.513306 203.929382,466.518860 199.542419,466.000763 
	C193.550049,465.293030 190.836121,459.819672 193.928589,453.965668 
	C198.511765,445.289856 203.508957,436.832550 208.340973,428.288452 
	C212.600449,420.756775 216.875107,413.233734 221.342010,405.399963 
z"/>
<path fill="#000000" opacity="1.000000" stroke="none" 
	d="
M377.002808,289.649963 
	C414.153870,289.651520 450.805573,289.680450 487.457062,289.614319 
	C491.193390,289.607574 493.831421,290.763947 495.458191,294.273041 
	C496.746490,297.052002 496.267456,299.412567 494.537201,301.731537 
	C493.378937,303.283875 491.903046,304.246307 489.941132,304.384308 
	C487.285950,304.571136 484.630676,304.913757 481.975189,304.916107 
	C444.990479,304.948944 408.005737,304.944977 371.021027,304.911560 
	C368.364532,304.909149 365.677795,304.805725 363.058807,304.401550 
	C358.712280,303.730804 356.253693,300.539856 356.739227,296.336243 
	C357.228912,292.096466 359.622223,289.723145 364.008392,289.676910 
	C368.173004,289.633026 372.338318,289.656525 377.002808,289.649963 
z"/>
<path fill="#000000" opacity="1.000000" stroke="none" 
	d="
M217.721725,264.339508 
	C188.328918,246.327057 159.255707,228.489212 130.202179,210.619400 
	C128.228271,209.405304 126.188507,208.167740 124.555649,206.559128 
	C121.834969,203.878876 121.821228,200.355347 123.583511,197.361694 
	C125.460678,194.172882 128.798233,193.266907 132.315781,194.683578 
	C134.613892,195.609116 136.790726,196.889175 138.914368,198.186432 
	C172.001389,218.397461 205.076874,238.627426 238.129166,258.895172 
	C240.068497,260.084412 242.392456,260.957123 243.296738,263.367645 
	C244.447937,266.436340 244.078445,269.508728 241.844589,271.745667 
	C239.509674,274.083832 236.357742,275.031189 233.160858,273.257111 
	C228.071259,270.432709 223.079269,267.432434 217.721725,264.339508 
z"/>
<path fill="#000000" opacity="1.000000" stroke="none" 
	d="
M206.999573,304.898956 
	C174.215500,304.903412 141.931305,304.916962 109.647110,304.896515 
	C107.325539,304.895050 104.977325,304.821411 102.688385,304.473145 
	C98.324989,303.809326 96.362991,300.931213 96.692238,296.717560 
	C97.014915,292.587982 99.229774,289.865570 103.647827,289.705627 
	C107.470589,289.567230 111.301682,289.650848 115.129097,289.650696 
	C151.240997,289.649078 187.352905,289.649933 223.464798,289.653015 
	C225.128723,289.653168 226.800095,289.585419 228.455139,289.714294 
	C232.992401,290.067505 235.728577,292.782196 235.610580,297.046173 
	C235.493225,301.287201 233.235321,303.830811 228.941483,304.382935 
	C221.812912,305.299469 214.647812,304.766693 206.999573,304.898956 
z"/>
<path fill="#000000" opacity="1.000000" stroke="none" 
	d="
M289.530884,106.087555 
	C291.656982,102.512489 294.409424,100.875275 298.121094,102.009705 
	C301.943970,103.178123 303.177582,105.990150 303.480713,109.999123 
	C304.890076,128.639526 304.092133,147.295395 304.225006,165.941177 
	C304.378143,187.430878 304.274628,208.922684 304.220184,230.413422 
	C304.203552,236.979309 302.216003,239.949951 297.716644,240.645370 
	C292.473083,241.455811 288.952209,238.611801 288.688202,233.315857 
	C288.621948,231.986160 288.664215,230.650833 288.664154,229.318085 
	C288.662567,190.667786 288.655182,152.017502 288.677948,113.367218 
	C288.679321,111.059059 288.293457,108.688141 289.530884,106.087555 
z"/>
<path fill="#000000" opacity="1.000000" stroke="none" 
	d="
M304.273621,448.000061 
	C304.273193,459.652802 304.318817,470.805786 304.254456,481.958160 
	C304.218384,488.204071 301.569702,491.273224 296.419830,491.349976 
	C291.178284,491.428101 288.708069,488.534149 288.703308,482.051453 
	C288.674530,442.933563 288.677155,403.815704 288.675262,364.697815 
	C288.675201,363.533569 288.560638,362.329132 288.809296,361.212433 
	C289.655304,357.413330 291.875458,354.838104 295.961609,354.803375 
	C299.849731,354.770294 302.660034,356.572510 303.493042,360.661682 
	C304.735809,366.762115 304.121002,372.946655 304.158600,379.085938 
	C304.298065,401.890015 304.250824,424.695251 304.273621,448.000061 
z"/>
<path fill="#000000" opacity="1.000000" stroke="none" 
	d="
M323.247650,172.416199 
	C325.801483,163.037201 328.124023,154.016281 330.664154,145.057007 
	C332.165344,139.761993 336.103973,137.481384 340.813660,138.791031 
	C345.102448,139.983643 347.026031,144.004456 345.596405,149.260300 
	C340.793762,166.916122 335.927399,184.554657 331.057892,202.192215 
	C330.616577,203.790649 330.078461,205.378906 329.411133,206.895264 
	C327.551117,211.121536 323.965698,212.989258 320.288055,211.755630 
	C316.333588,210.429123 314.095062,206.522568 315.210632,202.192612 
	C317.741699,192.369034 320.463562,182.594604 323.247650,172.416199 
z"/>
<path fill="#000000" opacity="1.000000" stroke="none" 
	d="
M253.826385,175.033966 
	C251.602127,166.099350 249.437546,157.575394 247.357117,149.030960 
	C246.066574,143.730530 248.055649,139.821167 252.408630,138.821457 
	C257.229736,137.714218 261.012939,140.119019 262.372894,145.357544 
	C267.206482,163.976517 272.006714,182.604218 276.763153,201.243042 
	C278.136902,206.626343 276.102753,210.497375 271.399048,211.872696 
	C267.285492,213.075470 263.370728,210.362930 261.969025,205.230545 
	C259.258728,195.306641 256.601074,185.368347 253.826385,175.033966 
z"/>
<path fill="#000000" opacity="1.000000" stroke="none" 
	d="
M331.420624,450.308990 
	C325.943176,431.247803 320.600494,412.555725 315.312500,393.848206 
	C313.670319,388.038635 315.458221,383.835968 320.023590,382.362122 
	C324.644043,380.870453 328.491913,383.294952 330.164490,389.284943 
	C335.344452,407.835938 340.326691,426.442078 345.465118,445.004791 
	C346.663727,449.334808 345.623993,452.743500 341.499512,454.517731 
	C337.197144,456.368561 333.720825,454.959930 331.420624,450.308990 
z"/>
<path fill="#000000" opacity="1.000000" stroke="none" 
	d="
M270.878448,414.684998 
	C267.883301,426.178040 265.029358,437.285583 262.144073,448.384979 
	C260.833282,453.427429 256.562347,456.250885 252.118622,455.079376 
	C248.156693,454.034851 245.760742,449.836945 247.008057,445.072113 
	C251.933731,426.255646 256.963867,407.465424 262.138275,388.715973 
	C263.606995,383.394073 267.501129,381.067322 271.727051,382.277802 
	C276.287506,383.584076 278.151581,387.503052 276.701233,393.098114 
	C274.865417,400.180267 272.910461,407.231567 270.878448,414.684998 
z"/>
<path fill="#000000" opacity="1.000000" stroke="none" 
	d="
M380.971375,367.024384 
	C392.117126,378.494324 403.012421,389.713776 413.902649,400.938141 
	C414.481445,401.534729 415.045685,402.150055 415.568329,402.795776 
	C419.086975,407.143250 419.271637,410.984314 416.118622,413.877869 
	C413.120758,416.629059 407.731750,416.546478 404.348480,413.085541 
	C390.976013,399.406036 377.734924,385.597137 364.537048,371.748566 
	C361.528961,368.592133 361.001709,364.872894 364.150818,361.468750 
	C367.319885,358.043091 371.136932,358.636169 374.555756,360.982452 
	C376.853394,362.559296 378.681641,364.820099 380.971375,367.024384 
z"/>
<path fill="#000000" opacity="1.000000" stroke="none" 
	d="
M367.409973,235.072266 
	C360.950714,231.422272 360.120453,226.914658 365.147888,221.680145 
	C375.857513,210.529343 386.816772,199.618408 397.663361,188.598969 
	C399.995636,186.229507 402.225708,183.756943 404.606598,181.438385 
	C408.015320,178.118958 412.670929,177.819946 415.839081,180.593384 
	C419.063660,183.416183 419.355072,187.929428 415.844360,191.676575 
	C408.798492,199.196960 401.432220,206.417282 394.192627,213.755951 
	C388.587372,219.437912 382.979065,225.116898 377.361450,230.786591 
	C374.730499,233.441956 371.933533,235.764069 367.409973,235.072266 
z"/>
<path fill="#000000" opacity="1.000000" stroke="none" 
	d="
M202.534393,196.470123 
	C210.425369,204.611801 218.126083,212.449188 225.709732,220.398270 
	C230.749786,225.681168 231.496170,229.709534 228.345016,232.993362 
	C224.859802,236.625320 220.029648,235.967072 214.888565,230.779327 
	C202.468948,218.246948 190.136185,205.627991 177.835541,192.978653 
	C175.662125,190.743637 173.261871,188.436783 174.122940,184.756073 
	C175.587997,178.493591 182.312363,176.717606 187.396759,181.465332 
	C192.501770,186.232315 197.339493,191.285538 202.534393,196.470123 
z"/>
<path fill="#000000" opacity="1.000000" stroke="none" 
	d="
M224.206985,376.187866 
	C212.638016,387.927673 201.322815,399.412750 189.998337,410.888611 
	C188.948318,411.952698 187.923187,413.068359 186.741791,413.970581 
	C183.561295,416.399475 178.290298,416.480896 176.190033,413.945587 
	C173.509369,410.709595 173.989944,407.123047 176.029846,403.777252 
	C176.964417,402.244385 178.378662,400.986481 179.655899,399.682800 
	C191.173370,387.926941 202.717804,376.197540 214.229187,364.435791 
	C215.990936,362.635712 217.827652,360.951569 220.185760,360.009094 
	C223.022003,358.875549 225.810699,358.900177 227.970581,361.352570 
	C230.246506,363.936676 231.073029,366.910278 228.998047,370.014679 
	C227.619705,372.076843 225.980576,373.964691 224.206985,376.187866 
z"/>
<path fill="#000000" opacity="1.000000" stroke="none" 
	d="
M391.463959,276.548828 
	C387.898071,270.190125 389.043182,266.232758 395.363373,264.245911 
	C413.428162,258.566956 431.558838,253.092682 449.719574,247.727325 
	C454.522675,246.308304 458.823059,248.901657 459.939911,253.216400 
	C460.983154,257.246765 458.970520,260.769836 454.212250,262.213959 
	C436.409088,267.617249 418.572479,272.912750 400.706177,278.103241 
	C397.682312,278.981720 394.429596,279.283325 391.463959,276.548828 
z"/>
<path fill="#000000" opacity="1.000000" stroke="none" 
	d="
M411.857147,318.992126 
	C425.082672,322.611298 437.919525,326.108734 450.753479,329.616638 
	C452.036804,329.967438 453.328064,330.314178 454.572144,330.779175 
	C459.042358,332.449829 461.190033,336.214447 459.924225,340.063019 
	C458.591248,344.115814 454.540649,346.279846 449.823364,345.070831 
	C440.321930,342.635651 430.857544,340.052063 421.403839,337.435760 
	C413.068359,335.128998 404.754730,332.740173 396.457214,330.300018 
	C390.935120,328.676056 388.471313,324.978546 389.672882,320.412567 
	C390.685883,316.563202 394.436798,314.704071 399.901489,315.784485 
	C403.807739,316.556793 407.615784,317.825897 411.857147,318.992126 
z"/>
<path fill="#000000" opacity="1.000000" stroke="none" 
	d="
M154.515305,326.387329 
	C166.897858,322.842438 178.892868,319.415771 190.893097,316.007507 
	C192.012054,315.689697 193.154312,315.335236 194.302750,315.261139 
	C198.783508,314.971924 201.711258,317.289062 202.882278,321.375366 
	C203.998520,325.270477 201.502914,327.734161 198.293854,329.221466 
	C195.746948,330.401855 192.974701,331.128357 190.260284,331.909576 
	C176.032623,336.004456 161.799194,340.079895 147.547104,344.088654 
	C145.320572,344.714905 143.003815,345.153351 140.700928,345.346405 
	C136.406235,345.706421 133.542603,343.674896 132.869522,339.396912 
	C132.206604,335.183533 134.259949,332.268494 138.297287,331.023865 
	C143.540100,329.407562 148.848816,328.005066 154.515305,326.387329 
z"/>
<path fill="#000000" opacity="1.000000" stroke="none" 
	d="
M186.184021,260.672852 
	C190.035965,261.914520 193.538956,262.963348 196.965515,264.220490 
	C201.778610,265.986359 203.925262,269.413757 202.796875,273.213989 
	C201.594299,277.264069 197.699768,279.443848 192.774918,278.154205 
	C185.717102,276.306061 178.781357,273.994019 171.784546,271.910065 
	C161.450073,268.832001 151.100723,265.803741 140.771378,262.708679 
	C134.617691,260.864777 131.943024,257.470703 133.048141,253.075974 
	C134.198303,248.501984 138.733429,246.344116 144.841064,248.080063 
	C156.175568,251.301666 167.421326,254.836197 178.697571,258.261658 
	C181.079590,258.985260 183.433899,259.800110 186.184021,260.672852 
z"/>
</svg>