<svg version="1.1" id="Layer_1" xmlns="http://www.w3.org/2000/svg" xmlns:xlink="http://www.w3.org/1999/xlink" x="0px" y="0px"
	 width="100%" viewBox="0 0 1024 1024" enable-background="new 0 0 1024 1024" xml:space="preserve">
<path fill="#000000" opacity="1.000000" stroke="none" 
	d="
M772.703674,658.686157 
	C754.992554,675.655212 736.117554,690.755310 717.893616,706.601685 
	C668.242676,749.774963 617.035828,791.158691 568.942749,836.124329 
	C560.303467,844.201843 551.252747,851.862793 542.928223,860.248474 
	C528.699829,874.581421 501.761200,873.221252 488.242432,863.286682 
	C473.458710,852.422363 460.155151,839.766296 446.576813,827.470398 
	C416.569244,800.296875 386.951324,772.685181 356.614044,745.886658 
	C336.650787,728.252136 315.983948,711.406921 294.981567,694.969788 
	C281.095337,684.102051 267.465271,672.737976 255.126526,660.112793 
	C241.089737,645.750183 235.531158,628.628052 240.585037,608.430847 
	C251.613068,564.358765 269.900665,523.182861 290.225433,482.830597 
	C313.021667,437.571533 339.303619,394.294220 365.588898,351.008850 
	C398.567505,296.701263 434.619232,244.532349 473.216431,194.101898 
	C481.311554,183.524933 489.797272,173.237991 498.336456,163.012329 
	C506.420197,153.332077 515.393555,152.796906 524.407654,161.759171 
	C533.521179,170.820328 540.752808,181.511322 548.687378,191.580017 
	C582.839417,234.917801 615.180420,279.580353 645.105347,325.936401 
	C679.452454,379.142670 711.358521,433.825470 739.887146,490.360840 
	C758.649658,527.542664 773.938171,566.299744 786.135742,606.170471 
	C792.209595,626.024414 785.623962,643.096191 772.703674,658.686157 
M436.227936,309.649597 
	C434.560089,312.141571 432.846466,314.604279 431.231689,317.130157 
	C417.777649,338.175079 403.521851,358.716034 391.213043,380.480408 
	C388.004944,386.152954 388.491821,388.008392 393.526245,391.938995 
	C399.301117,396.447662 405.341125,400.642426 410.888672,405.412354 
	C443.545990,433.492065 455.327789,469.561615 446.829559,510.904388 
	C439.921753,544.509888 417.871246,569.212219 390.979919,589.438049 
	C379.409698,598.140381 367.162231,605.938354 355.321594,614.287842 
	C352.267120,616.441711 349.069580,618.568481 346.866638,621.659485 
	C347.681580,623.054199 348.910065,623.259521 349.993256,623.469299 
	C361.602936,625.717468 371.985535,630.938416 382.280121,636.476074 
	C423.596344,658.700867 440.610626,710.305054 422.228760,748.622742 
	C420.437805,752.356018 422.214539,754.630249 424.738312,756.813232 
	C451.833893,780.249390 477.204803,805.597900 504.542511,828.765991 
	C513.244934,836.141113 513.279907,836.222595 521.745667,828.622803 
	C531.254028,820.086914 529.253784,821.680908 523.203918,813.935608 
	C522.179077,812.623535 521.139221,811.321472 520.062256,810.052124 
	C498.773590,784.961121 480.833130,757.744995 469.896515,726.555908 
	C457.897491,692.336914 453.343842,657.062622 458.785095,620.962097 
	C461.784241,601.063965 465.771271,581.313538 473.904205,562.728760 
	C481.845947,544.580994 490.212891,526.618713 498.101959,508.448608 
	C512.694763,474.838440 516.165894,439.848785 509.927826,403.906311 
	C503.238556,365.364105 484.375641,333.172058 457.296356,305.490387 
	C453.886719,302.004913 450.626648,298.166321 445.677826,295.565613 
	C442.533722,300.244263 439.576691,304.644531 436.227936,309.649597 
M614.778931,540.281311 
	C604.988586,549.645142 596.216003,559.898132 588.985168,571.342529 
	C564.880127,609.494263 559.709167,649.623169 577.502869,691.719727 
	C585.893555,711.570618 601.465088,725.900574 616.674194,740.405701 
	C618.531799,742.177307 619.993713,741.181396 621.472900,739.977844 
	C626.251953,736.088989 631.093750,732.271851 635.763916,728.255554 
	C665.057617,703.063232 694.309265,677.821960 723.580505,652.603577 
	C729.005249,647.929932 734.551514,643.392700 739.872131,638.604126 
	C747.789307,631.478577 753.730835,617.866821 747.801086,604.027649 
	C740.333191,586.598572 733.825806,568.760498 726.597595,551.225220 
	C720.128601,535.531555 713.450012,519.918274 705.514771,504.878754 
	C703.639221,501.324036 701.106445,499.549713 697.066711,500.481598 
	C666.860535,507.449524 638.336670,517.921875 614.778931,540.281311 
M552.496155,498.956726 
	C540.953796,513.020813 530.700012,527.909912 521.906738,543.897644 
	C498.315918,586.789734 488.264862,631.987183 496.185211,680.855652 
	C503.335022,724.969849 523.703552,762.076477 554.008606,794.267700 
	C555.937378,796.316467 557.489746,796.441833 559.470032,794.638306 
	C568.828857,786.114563 578.154419,777.553345 587.602173,769.129211 
	C590.041992,766.953735 589.498169,765.389709 587.493408,763.410583 
	C583.582886,759.550171 579.877869,755.481140 575.956238,751.632507 
	C546.054565,722.288208 531.105042,686.447693 530.318237,644.798706 
	C529.869629,621.054382 534.782410,598.180786 544.772339,576.558899 
	C561.563843,540.215820 586.683838,511.115875 620.988403,490.259674 
	C638.751465,479.460205 658.055908,472.243835 678.068787,466.800171 
	C684.720032,464.990967 685.076660,463.948029 681.611145,457.875000 
	C678.063049,451.657288 674.448669,445.473663 670.710449,439.368744 
	C654.712219,413.241455 640.194885,386.217346 623.102478,360.754364 
	C622.147583,359.331787 621.672058,357.286499 619.315308,357.216370 
	C617.911682,358.825317 617.777100,360.851898 617.298401,362.763916 
	C612.576965,381.620972 609.312866,400.952820 601.335632,418.812836 
	C588.587280,447.354553 572.503967,473.954407 552.496155,498.956726 
M321.796814,503.227020 
	C319.095673,508.762482 316.455353,514.328674 313.683014,519.828247 
	C300.321472,546.334045 289.491913,573.886475 279.806244,601.904358 
	C277.909393,607.391418 276.117645,613.016541 276.423126,618.924255 
	C276.732758,624.912415 279.139252,626.104980 284.020905,622.871582 
	C286.653412,621.127930 289.148651,619.163635 291.617645,617.188538 
	C314.121063,599.187134 337.122772,581.879822 361.381256,566.273987 
	C373.047028,558.769165 384.032318,550.357361 392.558350,539.231201 
	C406.683685,520.798035 415.844513,500.623260 411.353912,476.762665 
	C406.788574,452.504883 392.058411,435.262207 371.606598,422.385742 
	C368.336548,420.326935 366.486145,421.082336 364.557037,424.460144 
	C349.861237,450.192352 335.054474,475.859344 321.796814,503.227020 
M516.154236,321.423157 
	C526.881165,338.801666 534.837219,357.384552 540.723145,376.927521 
	C546.553223,396.284729 547.358826,416.387970 548.908875,436.294281 
	C551.227478,436.135895 551.693787,435.179565 552.163757,434.331940 
	C559.592407,420.934357 566.943787,407.498657 571.701904,392.842743 
	C579.155640,369.884003 582.525879,345.918915 588.989990,322.725342 
	C591.085510,315.206573 589.804199,308.798553 585.580994,302.445740 
	C576.906494,289.396912 567.175659,277.134460 557.831970,264.585602 
	C544.809021,247.095474 532.125122,229.343597 518.273132,212.484695 
	C512.623535,205.608734 511.325256,205.662247 506.075134,212.671326 
	C494.897858,227.593262 483.771759,242.553528 472.609741,257.486908 
	C468.035309,263.606995 467.857361,263.758728 473.447998,269.196136 
	C489.506348,284.814453 504.105469,301.600861 516.154236,321.423157 
M354.656097,663.918640 
	C339.278198,658.043762 323.559174,654.049133 306.667969,655.170898 
	C334.554932,678.629456 362.551422,701.598694 390.634460,726.700439 
	C392.362244,714.824829 392.831879,704.866150 388.452881,695.240417 
	C381.685394,680.364563 369.888550,670.822998 354.656097,663.918640 
z"/>
<path fill="#000000" opacity="1.000000" stroke="none" 
	d="
M653.425049,571.482666 
	C680.582825,570.078308 703.369263,588.475098 702.835266,617.916016 
	C702.491028,636.896423 693.166626,651.400208 675.975830,659.736511 
	C658.887878,668.022766 642.149841,665.618286 626.969177,654.702881 
	C611.314453,643.446533 606.146545,627.111328 609.151367,608.882690 
	C612.327881,589.612305 625.140198,578.120911 643.638977,572.758545 
	C646.692444,571.873413 649.819336,571.500732 653.425049,571.482666 
z"/>
</svg>